<svg width="22" height="23" viewBox="0 0 22 23" fill="none" xmlns="http://www.w3.org/2000/svg">
<path d="M9 13.5H11M11 13.5H13M11 13.5V15.5M11 13.5V11.5" stroke="#0D0F13" stroke-width="1.5" stroke-linecap="round"/>
<path d="M1 6.45C1 5.567 1 5.126 1.07 4.758C1.21922 3.96784 1.60314 3.241 2.17165 2.67231C2.74017 2.10361 3.46689 1.71947 4.257 1.57C4.626 1.5 5.068 1.5 5.95 1.5C6.336 1.5 6.53 1.5 6.716 1.517C7.51705 1.59223 8.27679 1.90728 8.896 2.421C9.04 2.54 9.176 2.676 9.45 2.95L10 3.5C10.816 4.316 11.224 4.724 11.712 4.995C11.9802 5.14449 12.2648 5.2626 12.56 5.347C13.098 5.5 13.675 5.5 14.828 5.5H15.202C17.834 5.5 19.151 5.5 20.006 6.27C20.085 6.34 20.16 6.415 20.23 6.494C21 7.349 21 8.666 21 11.298V13.5C21 17.271 21 19.157 19.828 20.328C18.657 21.5 16.771 21.5 13 21.5H9C5.229 21.5 3.343 21.5 2.172 20.328C1 19.157 1 17.271 1 13.5V6.45Z" stroke="#0D0F13" stroke-width="1.5"/>
</svg>
