<svg width="24" height="25" viewBox="0 0 24 25" fill="none" xmlns="http://www.w3.org/2000/svg">
<path d="M17.29 12.469C17.2919 12.8216 17.1537 13.1605 16.9058 13.4112C16.6579 13.6619 16.3206 13.8039 15.968 13.806C15.7933 13.8051 15.6206 13.7698 15.4596 13.7021C15.2985 13.6344 15.1524 13.5357 15.0296 13.4115C14.9067 13.2874 14.8095 13.1402 14.7436 12.9785C14.6776 12.8168 14.6441 12.6437 14.645 12.469C14.6439 12.2943 14.6773 12.121 14.7433 11.9592C14.8092 11.7974 14.9064 11.6501 15.0292 11.5259C15.1521 11.4016 15.2982 11.3028 15.4593 11.235C15.6204 11.1673 15.7933 11.1319 15.968 11.131C16.698 11.131 17.29 11.73 17.29 12.469Z" fill="#0D0F13"/>
<path fill-rule="evenodd" clip-rule="evenodd" d="M18.132 7.90799C17.283 7.78799 16.19 7.78799 14.827 7.78799H9.173C7.81 7.78799 6.717 7.78799 5.868 7.90799C4.991 8.03299 4.26 8.30099 3.716 8.92799C3.173 9.55599 3.006 10.325 3 11.221C2.994 12.087 3.139 13.183 3.319 14.55L3.684 17.321C3.825 18.39 3.939 19.254 4.116 19.931C4.301 20.635 4.573 21.22 5.084 21.672C5.594 22.124 6.204 22.32 6.918 22.412C7.605 22.5 8.468 22.5 9.533 22.5H14.467C15.532 22.5 16.395 22.5 17.082 22.412C17.797 22.32 18.405 22.124 18.916 21.672C19.427 21.22 19.699 20.635 19.884 19.931C20.061 19.254 20.175 18.389 20.316 17.321L20.681 14.55C20.861 13.183 21.006 12.087 21 11.22C20.993 10.325 20.828 9.55599 20.284 8.92899C19.74 8.30099 19.009 8.03299 18.132 7.90799ZM6.052 9.23199C5.326 9.33599 4.958 9.52399 4.712 9.80999C4.464 10.095 4.328 10.488 4.322 11.23C4.317 11.992 4.448 12.995 4.637 14.425L4.687 14.805L5.058 14.532C6.018 13.83 7.434 13.864 8.346 14.627L11.73 17.46C12.05 17.728 12.601 17.778 12.999 17.544L13.234 17.406C14.359 16.744 15.868 16.814 16.906 17.596L18.738 18.976C18.828 18.48 18.909 17.871 19.011 17.1L19.363 14.425C19.552 12.995 19.683 11.992 19.677 11.23C19.672 10.488 19.536 10.095 19.289 9.80999C19.042 9.52399 18.674 9.33599 17.947 9.23199C17.202 9.12599 16.202 9.12499 14.775 9.12499H9.225C7.798 9.12499 6.797 9.12599 6.052 9.23199Z" fill="#0D0F13"/>
<path d="M8.859 2.5H15.141C15.351 2.5 15.511 2.5 15.651 2.515C16.1297 2.56859 16.5844 2.75296 16.9652 3.04789C17.3461 3.34282 17.6383 3.73693 17.81 4.187H6.19C6.36165 3.73693 6.65392 3.34282 7.03476 3.04789C7.4156 2.75296 7.8703 2.56859 8.349 2.515C8.489 2.5 8.649 2.5 8.859 2.5ZM6.88 5C5.628 5 4.602 5.84 4.26 6.954C4.2527 6.97724 4.2457 7.00058 4.239 7.024C4.597 6.904 4.969 6.824 5.347 6.771C6.32 6.632 7.549 6.632 8.976 6.632H15.179C16.606 6.632 17.835 6.632 18.807 6.771C19.185 6.824 19.557 6.903 19.917 7.024C19.9103 7.00058 19.9033 6.97724 19.896 6.954C19.553 5.84 18.527 5 17.276 5H6.88Z" fill="#0D0F13"/>
</svg>
