<svg width="24" height="24" viewBox="0 0 24 24" fill="none" xmlns="http://www.w3.org/2000/svg">
<path d="M19.6237 8.82353C18.2911 9.64706 17.4679 11.0588 17.4679 12.6275C17.4679 14.3922 18.5262 16 20.1333 16.6667C19.8197 17.6863 19.3494 18.6275 18.7614 19.4902C17.8991 20.7059 16.9976 21.9608 15.6649 21.9608C14.3322 21.9608 13.9402 21.1765 12.3723 21.1765C10.8437 21.1765 10.2949 22 9.04061 22C7.78632 22 6.92399 20.8627 5.94407 19.451C4.65057 17.4902 3.90583 15.2157 3.86664 12.8235C3.86664 8.94118 6.37523 6.86274 8.88383 6.86274C10.2165 6.86274 11.314 7.72549 12.1372 7.72549C12.9211 7.72549 14.1754 6.82353 15.6649 6.82353C17.2327 6.78431 18.7222 7.52941 19.6237 8.82353ZM14.9593 5.17647C15.6257 4.39216 15.9784 3.41176 16.0176 2.39216C16.0176 2.27451 16.0176 2.11765 15.9784 2C14.8417 2.11765 13.7834 2.66667 13.0387 3.52941C12.3723 4.27451 11.9804 5.21569 11.9412 6.23529C11.9412 6.35294 11.9412 6.47059 11.9804 6.58824C12.0588 6.58824 12.1764 6.62745 12.2548 6.62745C13.3131 6.54902 14.293 6 14.9593 5.17647Z" fill="#1D1D1F"/>
</svg>
