<svg width="18" height="23" viewBox="0 0 18 23" fill="none" xmlns="http://www.w3.org/2000/svg">
<path d="M1 7.5C1 4.672 1 3.257 1.879 2.379C2.757 1.5 4.172 1.5 7 1.5H11C13.828 1.5 15.243 1.5 16.121 2.379C17 3.257 17 4.672 17 7.5V15.5C17 18.328 17 19.743 16.121 20.621C15.243 21.5 13.828 21.5 11 21.5H7C4.172 21.5 2.757 21.5 1.879 20.621C1 19.743 1 18.328 1 15.5V7.5Z" stroke="#0D0F13" stroke-width="1.5"/>
<path d="M16.898 15.5H4.898C3.968 15.5 3.503 15.5 3.121 15.602C2.61231 15.7384 2.14849 16.0063 1.77618 16.3788C1.40386 16.7513 1.13616 17.2152 1 17.724" stroke="#0D0F13" stroke-width="1.5"/>
<path d="M4 15.5V2M10 15.5V19.03C10 19.306 10 19.444 9.905 19.5C9.81 19.556 9.681 19.494 9.421 19.37L8.179 18.78C8.091 18.74 8.047 18.718 8 18.718C7.953 18.718 7.909 18.739 7.821 18.781L6.579 19.371C6.319 19.494 6.189 19.556 6.095 19.5C6 19.444 6 19.306 6 19.03V15.95" stroke="#0D0F13" stroke-width="1.5" stroke-linecap="round"/>
</svg>
