<svg width="22" height="23" viewBox="0 0 22 23" fill="none" xmlns="http://www.w3.org/2000/svg">
<path d="M16 11.5C17.0873 11.4998 18.145 11.1452 19.0126 10.4899C19.8803 9.83455 20.5107 8.91425 20.8082 7.86843C21.1058 6.82262 21.0544 5.70831 20.6617 4.69436C20.2691 3.68041 19.5566 2.82209 18.6322 2.24949C17.7079 1.67688 16.6221 1.4212 15.5394 1.52119C14.4566 1.62118 13.436 2.07139 12.6322 2.80358C11.8283 3.53578 11.2851 4.51006 11.0848 5.57878C10.8844 6.64749 11.0379 7.75238 11.522 8.72601C11.6135 8.90279 11.6373 9.1069 11.589 9.30001L11.291 10.413C11.2615 10.5232 11.2615 10.6392 11.291 10.7494C11.3206 10.8596 11.3786 10.9601 11.4593 11.0407C11.5399 11.1214 11.6404 11.1794 11.7506 11.209C11.8608 11.2385 11.9768 11.2385 12.087 11.209L13.2 10.911C13.3931 10.8627 13.5972 10.8865 13.774 10.978C14.4655 11.3223 15.2276 11.501 16 11.5Z" stroke="#0D0F13" stroke-width="1.5"/>
<path d="M13.645 16.043L14.1 15.564L13.012 14.53L12.557 15.011L13.645 16.043ZM15.599 15.361L17.509 16.462L18.258 15.161L16.347 14.061L15.599 15.361ZM17.878 18.741L16.458 20.236L17.545 21.27L18.965 19.775L17.878 18.741ZM15.603 20.716C14.168 20.857 10.423 20.737 6.359 16.459L5.272 17.491C9.701 22.154 13.926 22.39 15.75 22.209L15.603 20.716ZM6.359 16.459C2.483 12.378 1.833 8.935 1.752 7.425L0.254001 7.506C0.354001 9.356 1.138 13.139 5.272 17.491L6.359 16.459ZM7.735 9.821L8.021 9.519L6.934 8.486L6.647 8.788L7.735 9.821ZM8.247 5.759L6.986 3.977L5.761 4.843L7.021 6.626L8.247 5.759ZM2.717 3.591L1.149 5.245L2.237 6.278L3.807 4.625L2.717 3.591ZM7.191 9.304C7.01102 9.13055 6.82935 8.95888 6.646 8.789L6.644 8.791L6.641 8.794C6.62344 8.81254 6.60676 8.8319 6.591 8.852C6.49298 8.98175 6.41541 9.12575 6.361 9.279C6.263 9.554 6.211 9.918 6.277 10.372C6.407 11.264 6.992 12.463 8.519 14.072L9.607 13.038C8.179 11.535 7.827 10.61 7.761 10.154C7.729 9.934 7.761 9.819 7.774 9.782L7.782 9.763C7.77152 9.78003 7.7591 9.79581 7.745 9.81L7.74 9.815C7.73904 9.81604 7.73804 9.81704 7.737 9.818L7.736 9.819C7.736 9.819 7.734 9.821 7.191 9.304ZM8.519 14.072C10.042 15.676 11.192 16.305 12.069 16.448C12.52 16.521 12.885 16.462 13.161 16.353C13.3139 16.293 13.4561 16.2085 13.582 16.103C13.5943 16.092 13.6063 16.0807 13.618 16.069L13.632 16.055C13.6354 16.0517 13.6387 16.0484 13.642 16.045C13.642 16.043 13.645 16.043 13.101 15.526C12.557 15.01 12.558 15.009 12.558 15.008L12.56 15.007L12.562 15.004C12.5637 15.0024 12.5654 15.0007 12.567 14.999L12.577 14.989C12.5887 14.9777 12.6011 14.967 12.614 14.957C12.624 14.951 12.623 14.953 12.61 14.958C12.59 14.966 12.5 14.998 12.31 14.967C11.908 14.901 11.04 14.547 9.607 13.038L8.519 14.072ZM6.986 3.977C5.972 2.543 3.944 2.3 2.718 3.592L3.804 4.625C4.327 4.075 5.249 4.118 5.761 4.843L6.986 3.977ZM1.752 7.425C1.73 7.025 1.905 6.626 2.237 6.278L1.149 5.245C0.613001 5.809 0.205001 6.592 0.254001 7.506L1.752 7.425ZM16.457 20.237C16.178 20.531 15.887 20.688 15.603 20.716L15.75 22.209C16.497 22.136 17.102 21.737 17.545 21.27L16.457 20.237ZM8.021 9.52C8.99 8.5 9.057 6.907 8.247 5.76L7.022 6.626C7.444 7.223 7.379 8.018 6.934 8.486L8.021 9.52ZM17.509 16.462C18.33 16.935 18.491 18.097 17.878 18.742L18.965 19.775C20.27 18.401 19.89 16.101 18.258 15.161L17.509 16.462ZM14.1 15.564C14.485 15.158 15.086 15.067 15.599 15.362L16.347 14.062C15.248 13.43 13.887 13.612 13.012 14.532L14.1 15.564Z" fill="#0D0F13"/>
</svg>
