<svg width="20" height="23" viewBox="0 0 20 23" fill="none" xmlns="http://www.w3.org/2000/svg">
<path d="M14 3.16876C16.175 3.18126 17.353 3.2823 18.121 4.0823C19 4.99793 19 6.47085 19 9.41668V15.6667C19 18.6136 19 20.0865 18.121 21.0021C17.243 21.9167 15.828 21.9167 13 21.9167H7C4.172 21.9167 2.757 21.9167 1.879 21.0021C1 20.0854 1 18.6136 1 15.6667V9.41668C1 6.47085 1 4.99793 1.879 4.0823C2.647 3.2823 3.825 3.18126 6 3.16876" stroke="#0D0F13" stroke-width="1.5"/>
<path d="M5 14.1042H13M5 17.75H10.5" stroke="#0D0F13" stroke-width="1.5" stroke-linecap="round"/>
<path d="M6 2.64584C6 2.23144 6.15804 1.83401 6.43934 1.54099C6.72064 1.24796 7.10218 1.08334 7.5 1.08334H12.5C12.8978 1.08334 13.2794 1.24796 13.5607 1.54099C13.842 1.83401 14 2.23144 14 2.64584V3.68751C14 4.10191 13.842 4.49934 13.5607 4.79236C13.2794 5.08539 12.8978 5.25001 12.5 5.25001H7.5C7.10218 5.25001 6.72064 5.08539 6.43934 4.79236C6.15804 4.49934 6 4.10191 6 3.68751V2.64584Z" stroke="#0D0F13" stroke-width="1.5"/>
</svg>
