<svg width="24" height="25" viewBox="0 0 24 25" fill="none" xmlns="http://www.w3.org/2000/svg">
<path fill-rule="evenodd" clip-rule="evenodd" d="M22 12.5C22 6.977 17.523 2.5 12 2.5C6.477 2.5 2 6.977 2 12.5C2 18.023 6.477 22.5 12 22.5C17.523 22.5 22 18.023 22 12.5ZM12 6.75C12.1989 6.75 12.3897 6.82902 12.5303 6.96967C12.671 7.11032 12.75 7.30109 12.75 7.5V13.5C12.75 13.6989 12.671 13.8897 12.5303 14.0303C12.3897 14.171 12.1989 14.25 12 14.25C11.8011 14.25 11.6103 14.171 11.4697 14.0303C11.329 13.8897 11.25 13.6989 11.25 13.5V7.5C11.25 7.30109 11.329 7.11032 11.4697 6.96967C11.6103 6.82902 11.8011 6.75 12 6.75ZM12 17.5C12.2652 17.5 12.5196 17.3946 12.7071 17.2071C12.8946 17.0196 13 16.7652 13 16.5C13 16.2348 12.8946 15.9804 12.7071 15.7929C12.5196 15.6054 12.2652 15.5 12 15.5C11.7348 15.5 11.4804 15.6054 11.2929 15.7929C11.1054 15.9804 11 16.2348 11 16.5C11 16.7652 11.1054 17.0196 11.2929 17.2071C11.4804 17.3946 11.7348 17.5 12 17.5Z" fill="#0D0F13"/>
</svg>
