<svg width="21" height="20" viewBox="0 0 21 20" fill="none" xmlns="http://www.w3.org/2000/svg">
<path fill-rule="evenodd" clip-rule="evenodd" d="M18.8333 9.99984C18.8333 5.39734 15.1025 1.6665 10.5 1.6665C5.89746 1.6665 2.16663 5.39734 2.16663 9.99984C2.16663 14.6023 5.89746 18.3332 10.5 18.3332C15.1025 18.3332 18.8333 14.6023 18.8333 9.99984ZM10.5 5.20817C10.6657 5.20817 10.8247 5.27402 10.9419 5.39123C11.0591 5.50844 11.125 5.66741 11.125 5.83317V10.8332C11.125 10.9989 11.0591 11.1579 10.9419 11.2751C10.8247 11.3923 10.6657 11.4582 10.5 11.4582C10.3342 11.4582 10.1752 11.3923 10.058 11.2751C9.94081 11.1579 9.87496 10.9989 9.87496 10.8332V5.83317C9.87496 5.66741 9.94081 5.50844 10.058 5.39123C10.1752 5.27402 10.3342 5.20817 10.5 5.20817ZM10.5 14.1665C10.721 14.1665 10.9329 14.0787 11.0892 13.9224C11.2455 13.7661 11.3333 13.5542 11.3333 13.3332C11.3333 13.1122 11.2455 12.9002 11.0892 12.7439C10.9329 12.5876 10.721 12.4998 10.5 12.4998C10.2789 12.4998 10.067 12.5876 9.9107 12.7439C9.75442 12.9002 9.66663 13.1122 9.66663 13.3332C9.66663 13.5542 9.75442 13.7661 9.9107 13.9224C10.067 14.0787 10.2789 14.1665 10.5 14.1665Z" fill="#4E55FF"/>
</svg>
