<svg width="24" height="24" viewBox="0 0 24 24" fill="none" xmlns="http://www.w3.org/2000/svg">
<path d="M22.5601 12.2498C22.5601 11.4698 22.4901 10.7198 22.3601 9.99985H12.0001V14.2548H17.9201C17.6651 15.6298 16.8901 16.7948 15.7251 17.5748V20.3348H19.2801C21.3601 18.4198 22.5601 15.5998 22.5601 12.2498Z" fill="#4285F4"/>
<path d="M12.0002 22.9992C14.9702 22.9992 17.4602 22.0142 19.2802 20.3342L15.7252 17.5742C14.7402 18.2342 13.4802 18.6242 12.0002 18.6242C9.13517 18.6242 6.71017 16.6892 5.84517 14.0892H2.17017V16.9392C3.98017 20.5342 7.70017 22.9992 12.0002 22.9992Z" fill="#34A853"/>
<path d="M5.845 14.0908C5.625 13.4308 5.5 12.7258 5.5 12.0008C5.5 11.2758 5.625 10.5708 5.845 9.91079V7.06079H2.17C1.4 8.59365 0.999321 10.2854 1 12.0008C1 13.7758 1.425 15.4558 2.17 16.9408L5.845 14.0908Z" fill="#FBBC05"/>
<path d="M12.0002 5.37485C13.6152 5.37485 15.0652 5.92985 16.2052 7.01985L19.3602 3.86485C17.4552 2.08985 14.9652 0.999847 12.0002 0.999847C7.70017 0.999847 3.98017 3.46485 2.17017 7.05985L5.84517 9.90985C6.71017 7.30985 9.13517 5.37485 12.0002 5.37485Z" fill="#EA4335"/>
</svg>
