<svg width="24" height="25" viewBox="0 0 24 25" fill="none" xmlns="http://www.w3.org/2000/svg">
<path d="M12 5.99999L11.46 6.51999C11.53 6.59257 11.6138 6.65031 11.7066 6.68974C11.7994 6.72918 11.8992 6.74951 12 6.74951C12.1008 6.74951 12.2006 6.72918 12.2934 6.68974C12.3862 6.65031 12.47 6.59257 12.54 6.51999L12 5.99999ZM9.426 18.822C7.91 17.627 6.253 16.46 4.938 14.98C3.65 13.528 2.75 11.835 2.75 9.63699H1.25C1.25 12.303 2.36 14.337 3.817 15.976C5.247 17.586 7.071 18.876 8.497 20L9.426 18.822ZM2.75 9.63699C2.75 7.48699 3.965 5.68299 5.624 4.92399C7.236 4.18699 9.402 4.38199 11.46 6.51999L12.54 5.48099C10.1 2.94399 7.264 2.52499 5 3.55999C2.786 4.57299 1.25 6.92499 1.25 9.63699H2.75ZM8.497 20C9.01 20.404 9.56 20.834 10.117 21.16C10.674 21.485 11.31 21.75 12 21.75V20.25C11.69 20.25 11.326 20.13 10.874 19.865C10.421 19.601 9.952 19.237 9.426 18.822L8.497 20ZM15.503 20C16.929 18.875 18.753 17.587 20.183 15.976C21.64 14.336 22.75 12.303 22.75 9.63699H21.25C21.25 11.835 20.35 13.528 19.062 14.98C17.747 16.46 16.09 17.627 14.574 18.822L15.503 20ZM22.75 9.63699C22.75 6.92499 21.215 4.57299 19 3.55999C16.736 2.52499 13.902 2.94399 11.46 5.47999L12.54 6.51999C14.598 4.38299 16.764 4.18699 18.376 4.92399C20.035 5.68299 21.25 7.48599 21.25 9.63699H22.75ZM14.574 18.822C14.048 19.237 13.579 19.601 13.126 19.865C12.674 20.129 12.31 20.25 12 20.25V21.75C12.69 21.75 13.326 21.485 13.883 21.16C14.441 20.834 14.99 20.404 15.503 20L14.574 18.822Z" fill="#0D0F13"/>
</svg>
