<svg width="24" height="25" viewBox="0 0 24 25" fill="none" xmlns="http://www.w3.org/2000/svg">
<path fill-rule="evenodd" clip-rule="evenodd" d="M16.25 4.25V5.94L18.25 7.54V4.25H16.25ZM19.75 8.74V4C19.75 3.31 19.19 2.75 18.5 2.75H16C15.31 2.75 14.75 3.31 14.75 4V4.74L14.343 4.414C13.678 3.88186 12.8517 3.59194 12 3.59194C11.1483 3.59194 10.322 3.88186 9.657 4.414L1.532 10.914C1.37658 11.0383 1.27689 11.2192 1.25486 11.4169C1.23282 11.6147 1.29025 11.8131 1.4145 11.9685C1.53875 12.1239 1.71966 12.2236 1.91741 12.2456C2.11517 12.2677 2.31358 12.2103 2.469 12.086L3.25 11.46V21.75H2C1.80109 21.75 1.61032 21.829 1.46967 21.9697C1.32902 22.1103 1.25 22.3011 1.25 22.5C1.25 22.6989 1.32902 22.8897 1.46967 23.0303C1.61032 23.171 1.80109 23.25 2 23.25H22C22.1989 23.25 22.3897 23.171 22.5303 23.0303C22.671 22.8897 22.75 22.6989 22.75 22.5C22.75 22.3011 22.671 22.1103 22.5303 21.9697C22.3897 21.829 22.1989 21.75 22 21.75H20.75V11.46L21.532 12.086C21.6877 12.2073 21.8849 12.2624 22.0809 12.2393C22.2769 12.2161 22.4559 12.1167 22.5791 11.9625C22.7022 11.8082 22.7596 11.6117 22.7388 11.4154C22.7181 11.2192 22.6207 11.039 22.468 10.914L19.75 8.74ZM19.25 10.26L13.406 5.585C13.007 5.26562 12.5111 5.09161 12 5.09161C11.4889 5.09161 10.993 5.26562 10.594 5.585L4.75 10.26V21.75H8.25V17.45C8.25 16.786 8.25 16.213 8.312 15.754C8.378 15.262 8.527 14.791 8.909 14.409C9.291 14.027 9.763 13.878 10.254 13.812C10.713 13.75 11.286 13.75 11.951 13.75H12.049C12.714 13.75 13.287 13.75 13.746 13.812C14.238 13.878 14.709 14.027 15.091 14.409C15.473 14.791 15.622 15.262 15.688 15.754C15.75 16.213 15.75 16.786 15.75 17.451V21.75H19.25V10.26ZM14.25 21.75V17.5C14.25 16.772 14.248 16.3 14.202 15.954C14.158 15.629 14.088 15.527 14.03 15.47C13.973 15.413 13.871 15.342 13.546 15.298C13.199 15.252 12.728 15.25 12 15.25C11.272 15.25 10.8 15.252 10.454 15.298C10.129 15.342 10.027 15.413 9.97 15.47C9.913 15.527 9.842 15.629 9.798 15.954C9.752 16.301 9.75 16.772 9.75 17.5V21.75H14.25ZM12 8.75C11.8358 8.75 11.6733 8.78233 11.5216 8.84515C11.37 8.90797 11.2322 9.00004 11.1161 9.11612C11 9.23219 10.908 9.36999 10.8452 9.52165C10.7823 9.6733 10.75 9.83585 10.75 10C10.75 10.1642 10.7823 10.3267 10.8452 10.4784C10.908 10.63 11 10.7678 11.1161 10.8839C11.2322 11 11.37 11.092 11.5216 11.1548C11.6733 11.2177 11.8358 11.25 12 11.25C12.3315 11.25 12.6495 11.1183 12.8839 10.8839C13.1183 10.6495 13.25 10.3315 13.25 10C13.25 9.66848 13.1183 9.35054 12.8839 9.11612C12.6495 8.8817 12.3315 8.75 12 8.75ZM9.25 10C9.25 9.27065 9.53973 8.57118 10.0555 8.05546C10.5712 7.53973 11.2707 7.25 12 7.25C12.7293 7.25 13.4288 7.53973 13.9445 8.05546C14.4603 8.57118 14.75 9.27065 14.75 10C14.75 10.7293 14.4603 11.4288 13.9445 11.9445C13.4288 12.4603 12.7293 12.75 12 12.75C11.2707 12.75 10.5712 12.4603 10.0555 11.9445C9.53973 11.4288 9.25 10.7293 9.25 10Z" fill="#0D0F13"/>
</svg>
