<svg width="24" height="25" viewBox="0 0 24 25" fill="none" xmlns="http://www.w3.org/2000/svg">
<path d="M14.945 1.75C13.578 1.75 12.475 1.75 11.608 1.867C10.708 1.987 9.94999 2.247 9.34799 2.848C8.82399 3.373 8.55799 4.018 8.41899 4.776C8.28399 5.513 8.25799 6.414 8.25199 7.496C8.25093 7.69491 8.32893 7.8861 8.46884 8.0275C8.60874 8.1689 8.79908 8.24894 8.99799 8.25C9.19691 8.25106 9.38809 8.17306 9.5295 8.03316C9.6709 7.89326 9.75093 7.70291 9.75199 7.504C9.75799 6.411 9.78599 5.636 9.89399 5.047C9.99899 4.481 10.166 4.152 10.409 3.909C10.686 3.632 11.075 3.452 11.809 3.353C12.564 3.252 13.565 3.25 15 3.25H16C17.436 3.25 18.437 3.252 19.192 3.353C19.926 3.452 20.314 3.633 20.592 3.909C20.868 4.186 21.048 4.574 21.147 5.309C21.249 6.063 21.25 7.065 21.25 8.5V16.5C21.25 17.935 21.249 18.936 21.147 19.692C21.048 20.426 20.868 20.814 20.591 21.091C20.314 21.368 19.926 21.548 19.192 21.647C18.437 21.748 17.436 21.75 16 21.75H15C13.565 21.75 12.564 21.748 11.808 21.647C11.075 21.548 10.686 21.367 10.409 21.091C10.166 20.847 9.99899 20.519 9.89399 19.953C9.78599 19.364 9.75799 18.589 9.75199 17.496C9.75147 17.3975 9.73155 17.3001 9.69337 17.2093C9.6552 17.1185 9.59951 17.0361 9.5295 16.9668C9.45948 16.8976 9.37651 16.8428 9.28531 16.8056C9.19412 16.7684 9.09649 16.7495 8.99799 16.75C8.8995 16.7505 8.80208 16.7704 8.71129 16.8086C8.62049 16.8468 8.53811 16.9025 8.46884 16.9725C8.39956 17.0425 8.34476 17.1255 8.30755 17.2167C8.27035 17.3079 8.25147 17.4055 8.25199 17.504C8.25799 18.586 8.28399 19.487 8.41899 20.224C8.55899 20.982 8.82399 21.627 9.34899 22.152C9.94999 22.754 10.709 23.012 11.609 23.134C12.475 23.25 13.578 23.25 14.945 23.25H16.055C17.423 23.25 18.525 23.25 19.392 23.134C20.292 23.012 21.05 22.754 21.652 22.152C22.254 21.55 22.512 20.792 22.634 19.892C22.75 19.025 22.75 17.922 22.75 16.555V8.445C22.75 7.078 22.75 5.975 22.634 5.108C22.513 4.208 22.254 3.45 21.652 2.848C21.05 2.246 20.292 1.988 19.392 1.867C18.525 1.75 17.422 1.75 16.055 1.75H14.945Z" fill="#0D0F13"/>
<path d="M15 11.75C15.1989 11.75 15.3897 11.829 15.5303 11.9697C15.671 12.1103 15.75 12.3011 15.75 12.5C15.75 12.6989 15.671 12.8897 15.5303 13.0303C15.3897 13.171 15.1989 13.25 15 13.25H4.02701L5.98801 14.93C6.13918 15.0594 6.23275 15.2436 6.24813 15.442C6.2635 15.6404 6.19943 15.8368 6.07001 15.988C5.94058 16.1392 5.7564 16.2327 5.55799 16.2481C5.35958 16.2635 5.16318 16.1994 5.01201 16.07L1.51201 13.07C1.42967 12.9996 1.36357 12.9122 1.31825 12.8138C1.27292 12.7154 1.24945 12.6083 1.24945 12.5C1.24945 12.3917 1.27292 12.2846 1.31825 12.1862C1.36357 12.0878 1.42967 12.0004 1.51201 11.93L5.01201 8.93C5.08686 8.86591 5.1736 8.8172 5.26728 8.78664C5.36096 8.75607 5.45975 8.74426 5.55799 8.75188C5.65624 8.75949 5.75202 8.78638 5.83987 8.83101C5.92772 8.87565 6.00592 8.93714 6.07001 9.012C6.13409 9.08685 6.18281 9.17359 6.21337 9.26727C6.24393 9.36095 6.25574 9.45973 6.24813 9.55798C6.24051 9.65622 6.21362 9.75201 6.16899 9.83986C6.12436 9.92771 6.06286 10.0059 5.98801 10.07L4.02801 11.75H15Z" fill="#0D0F13"/>
</svg>
