<svg width="24" height="25" viewBox="0 0 24 25" fill="none" xmlns="http://www.w3.org/2000/svg">
<path d="M5.13 5.795C5 5.977 5 6.235 5 6.75C5 7.265 5 7.523 5.13 7.705C5.17529 7.7692 5.23107 7.82532 5.295 7.871C5.477 8 5.735 8 6.25 8C6.765 8 7.023 8 7.205 7.87C7.2692 7.82471 7.32532 7.76893 7.371 7.705C7.5 7.523 7.5 7.265 7.5 6.75C7.5 6.235 7.5 5.977 7.37 5.795C7.32471 5.7308 7.26893 5.67468 7.205 5.629C7.023 5.5 6.765 5.5 6.25 5.5C5.735 5.5 5.477 5.5 5.295 5.63C5.2308 5.67529 5.17568 5.73107 5.13 5.795Z" fill="#0D0F13"/>
<path fill-rule="evenodd" clip-rule="evenodd" d="M8.704 1.79C9.147 1.832 9.559 1.924 9.937 2.155C10.307 2.382 10.618 2.693 10.845 3.063C11.076 3.441 11.168 3.853 11.21 4.296C11.25 4.719 11.25 5.24 11.25 5.864V7.052C11.25 7.95 11.25 8.7 11.17 9.294C11.086 9.922 10.9 10.489 10.444 10.944C9.989 11.4 9.422 11.586 8.794 11.67C8.2 11.75 7.45 11.75 6.552 11.75H5.364C4.74 11.75 4.219 11.75 3.796 11.71C3.353 11.668 2.941 11.576 2.563 11.345C2.19292 11.1182 1.88177 10.8071 1.655 10.437C1.424 10.059 1.332 9.647 1.29 9.204C1.25 8.781 1.25 8.26 1.25 7.636V7.562C1.25 6.612 1.25 5.846 1.309 5.229C1.369 4.593 1.497 4.039 1.803 3.541C2.11192 3.03655 2.5358 2.61233 3.04 2.303C3.538 1.997 4.092 1.869 4.728 1.809C5.345 1.75 6.111 1.75 7.061 1.75H7.135C7.759 1.75 8.28 1.75 8.703 1.79M8.561 3.283C8.218 3.251 7.77 3.25 7.1 3.25C6.103 3.25 5.409 3.25 4.871 3.302C4.345 3.352 4.047 3.445 3.824 3.582C3.52164 3.7674 3.2674 4.02164 3.082 4.324C2.945 4.547 2.852 4.845 2.802 5.371C2.75 5.91 2.75 6.603 2.75 7.6C2.75 8.27 2.75 8.718 2.783 9.062C2.815 9.395 2.871 9.55 2.934 9.653C3.037 9.821 3.179 9.963 3.347 10.066C3.45 10.129 3.605 10.185 3.937 10.216C4.282 10.249 4.731 10.25 5.4 10.25H6.5C7.464 10.25 8.112 10.248 8.595 10.183C9.056 10.121 9.254 10.014 9.384 9.883C9.514 9.753 9.621 9.556 9.684 9.095C9.748 8.612 9.75 7.964 9.75 7V5.9C9.75 5.23 9.75 4.782 9.717 4.438C9.685 4.105 9.629 3.95 9.566 3.847C9.46288 3.67865 9.32135 3.53712 9.153 3.434C9.05 3.371 8.895 3.315 8.563 3.284" fill="#0D0F13"/>
<path d="M16.63 5.795C16.5 5.977 16.5 6.235 16.5 6.75C16.5 7.265 16.5 7.523 16.63 7.705C16.6753 7.7692 16.7311 7.82532 16.795 7.871C16.977 8 17.235 8 17.75 8C18.265 8 18.523 8 18.705 7.87C18.7692 7.82471 18.8253 7.76893 18.871 7.705C19 7.523 19 7.265 19 6.75C19 6.235 19 5.977 18.87 5.795C18.8247 5.73081 18.7689 5.6747 18.705 5.629C18.523 5.5 18.265 5.5 17.75 5.5C17.235 5.5 16.977 5.5 16.795 5.63C16.7308 5.67531 16.6757 5.73109 16.63 5.795Z" fill="#0D0F13"/>
<path fill-rule="evenodd" clip-rule="evenodd" d="M16.864 1.75H16.938C17.888 1.75 18.654 1.75 19.271 1.809C19.907 1.869 20.461 1.997 20.959 2.303C21.464 2.612 21.889 3.036 22.197 3.541C22.503 4.039 22.631 4.593 22.691 5.229C22.75 5.846 22.75 6.612 22.75 7.562V7.636C22.75 8.26 22.75 8.781 22.71 9.204C22.668 9.647 22.576 10.059 22.345 10.437C22.118 10.807 21.807 11.118 21.437 11.345C21.059 11.576 20.647 11.668 20.204 11.71C19.781 11.75 19.26 11.75 18.636 11.75H17.448C16.549 11.75 15.8 11.75 15.206 11.67C14.578 11.586 14.011 11.4 13.556 10.944C13.1 10.489 12.914 9.922 12.83 9.294C12.75 8.7 12.75 7.95 12.75 7.052V5.864C12.75 5.24 12.75 4.719 12.79 4.296C12.832 3.853 12.924 3.441 13.155 3.063C13.3818 2.69292 13.6929 2.38177 14.063 2.155C14.441 1.924 14.853 1.832 15.296 1.79C15.719 1.75 16.24 1.75 16.864 1.75ZM15.438 3.283C15.105 3.315 14.95 3.371 14.847 3.434C14.6787 3.53712 14.5371 3.67865 14.434 3.847C14.371 3.95 14.315 4.105 14.284 4.437C14.251 4.782 14.25 5.231 14.25 5.9V7C14.25 7.964 14.252 8.612 14.316 9.095C14.379 9.556 14.486 9.754 14.616 9.884C14.746 10.014 14.944 10.121 15.406 10.184C15.888 10.248 16.536 10.25 17.5 10.25H18.6C19.27 10.25 19.718 10.25 20.062 10.217C20.395 10.185 20.55 10.129 20.653 10.066C20.8213 9.96288 20.9629 9.82135 21.066 9.653C21.129 9.55 21.185 9.395 21.216 9.063C21.249 8.718 21.25 8.269 21.25 7.6C21.25 6.603 21.25 5.909 21.198 5.371C21.148 4.845 21.055 4.547 20.918 4.324C20.7326 4.02164 20.4784 3.7674 20.176 3.582C19.953 3.445 19.655 3.352 19.129 3.302C18.591 3.251 17.897 3.25 16.9 3.25C16.23 3.25 15.782 3.25 15.438 3.283Z" fill="#0D0F13"/>
<path d="M5 18.25C5 17.735 5 17.477 5.13 17.295C5.17531 17.2308 5.23109 17.1747 5.295 17.129C5.477 17 5.735 17 6.25 17C6.765 17 7.023 17 7.205 17.13C7.2692 17.1753 7.32532 17.2311 7.371 17.295C7.5 17.477 7.5 17.735 7.5 18.25C7.5 18.765 7.5 19.023 7.37 19.205C7.32471 19.2692 7.26893 19.3253 7.205 19.371C7.023 19.5 6.765 19.5 6.25 19.5C5.735 19.5 5.477 19.5 5.295 19.37C5.23081 19.3247 5.1747 19.2689 5.129 19.205C5 19.023 5 18.765 5 18.25Z" fill="#0D0F13"/>
<path fill-rule="evenodd" clip-rule="evenodd" d="M8.794 13.33C9.422 13.414 9.989 13.6 10.444 14.056C10.9 14.511 11.086 15.078 11.17 15.706C11.25 16.3 11.25 17.049 11.25 17.948V19.136C11.25 19.76 11.25 20.281 11.21 20.704C11.168 21.146 11.076 21.559 10.845 21.937C10.618 22.307 10.307 22.618 9.937 22.845C9.559 23.077 9.147 23.168 8.704 23.21C8.281 23.25 7.76 23.25 7.136 23.25H7.062C6.112 23.25 5.346 23.25 4.729 23.191C4.093 23.131 3.539 23.003 3.041 22.697C2.53643 22.3878 2.1122 21.9636 1.803 21.459C1.497 20.961 1.369 20.407 1.309 19.771C1.25 19.154 1.25 18.388 1.25 17.438V17.364C1.25 16.74 1.25 16.219 1.29 15.796C1.332 15.354 1.424 14.941 1.655 14.563C1.88177 14.1929 2.19292 13.8818 2.563 13.655C2.941 13.424 3.353 13.332 3.796 13.29C4.219 13.25 4.74 13.25 5.364 13.25H6.552C7.45 13.25 8.2 13.25 8.794 13.33ZM8.594 14.816C8.112 14.752 7.464 14.75 6.5 14.75H5.4C4.73 14.75 4.282 14.75 3.938 14.784C3.605 14.815 3.45 14.871 3.347 14.934C3.17865 15.0371 3.03712 15.1787 2.934 15.347C2.871 15.45 2.815 15.605 2.784 15.937C2.751 16.282 2.75 16.731 2.75 17.4C2.75 18.397 2.75 19.091 2.802 19.629C2.852 20.155 2.945 20.453 3.082 20.676C3.267 20.978 3.522 21.233 3.824 21.418C4.047 21.555 4.345 21.648 4.871 21.698C5.409 21.749 6.103 21.75 7.1 21.75C7.77 21.75 8.218 21.75 8.562 21.716C8.895 21.685 9.05 21.629 9.153 21.566C9.32135 21.4629 9.46288 21.3213 9.566 21.153C9.629 21.05 9.685 20.895 9.716 20.563C9.749 20.218 9.75 19.769 9.75 19.1V18C9.75 17.036 9.748 16.388 9.683 15.905C9.621 15.444 9.514 15.246 9.383 15.116C9.253 14.986 9.056 14.879 8.595 14.816" fill="#0D0F13"/>
<path d="M16.962 13.25H19V14.75H17C16.282 14.75 15.8 14.75 15.433 14.788C15.078 14.824 14.914 14.888 14.806 14.961C14.6695 15.0523 14.5523 15.1695 14.461 15.306C14.388 15.414 14.324 15.578 14.288 15.933C14.251 16.3 14.25 16.783 14.25 17.5H12.75V17.462C12.75 16.792 12.75 16.233 12.796 15.781C12.844 15.307 12.949 14.868 13.214 14.472C13.414 14.172 13.672 13.914 13.972 13.714C14.368 13.449 14.807 13.344 15.281 13.296C15.733 13.25 16.293 13.25 16.962 13.25ZM12.75 22.5V19.5H14.25V22.5C14.25 22.6989 14.171 22.8897 14.0303 23.0303C13.8897 23.171 13.6989 23.25 13.5 23.25C13.3011 23.25 13.1103 23.171 12.9697 23.0303C12.829 22.8897 12.75 22.6989 12.75 22.5ZM22.75 14C22.75 13.8011 22.671 13.6103 22.5303 13.4697C22.3897 13.329 22.1989 13.25 22 13.25C21.8011 13.25 21.6103 13.329 21.4697 13.4697C21.329 13.6103 21.25 13.8011 21.25 14V17.5H22.75V14ZM21.25 19.5C21.25 19.976 21.25 20.296 21.233 20.543C21.216 20.784 21.187 20.901 21.155 20.978C21.0922 21.1298 21.0001 21.2677 20.8839 21.3839C20.7677 21.5001 20.6298 21.5922 20.478 21.655C20.401 21.687 20.284 21.716 20.043 21.733C19.796 21.75 19.476 21.75 19 21.75H17V23.25H19.025C19.47 23.25 19.841 23.25 20.145 23.23C20.462 23.208 20.762 23.161 21.052 23.04C21.3857 22.9019 21.689 22.6994 21.9445 22.4441C22.2 22.1888 22.4027 21.8857 22.541 21.552C22.661 21.262 22.708 20.962 22.729 20.645C22.75 20.341 22.75 19.97 22.75 19.525V19.5H21.25ZM16.169 16.944C16 17.197 16 17.548 16 18.25C16 18.952 16 19.303 16.169 19.556C16.2418 19.6648 16.3352 19.7582 16.444 19.831C16.697 20 17.048 20 17.75 20C18.452 20 18.803 20 19.056 19.831C19.1648 19.7582 19.2582 19.6648 19.331 19.556C19.5 19.303 19.5 18.952 19.5 18.25C19.5 17.548 19.5 17.197 19.331 16.944C19.2582 16.8352 19.1648 16.7418 19.056 16.669C18.803 16.5 18.452 16.5 17.75 16.5C17.048 16.5 16.697 16.5 16.444 16.669C16.3352 16.7418 16.2418 16.8352 16.169 16.944Z" fill="#0D0F13"/>
</svg>
