<svg width="24" height="25" viewBox="0 0 24 25" fill="none" xmlns="http://www.w3.org/2000/svg">
<path d="M9.17 4.50001C9.3766 3.91448 9.75974 3.40744 10.2666 3.0488C10.7735 2.69015 11.3791 2.49756 12 2.49756C12.6209 2.49756 13.2265 2.69015 13.7334 3.0488C14.2403 3.40744 14.6234 3.91448 14.83 4.50001M20.5 6.50001H3.5M18.833 9.00001L18.373 15.9C18.196 18.554 18.108 19.881 17.243 20.69C16.378 21.5 15.047 21.5 12.387 21.5H11.613C8.953 21.5 7.622 21.5 6.757 20.69C5.892 19.881 5.803 18.554 5.627 15.9L5.167 9.00001M9.5 11.5L10 16.5M14.5 11.5L14 16.5" stroke="#0D0F13" stroke-width="1.5" stroke-linecap="round"/>
</svg>
