<svg width="20" height="20" viewBox="0 0 20 20" fill="none" xmlns="http://www.w3.org/2000/svg">
<path d="M10 1.66667C13.9284 1.66667 15.8925 1.66667 17.1125 2.88667C18.3334 4.10833 18.3334 6.07167 18.3334 10C18.3334 13.9283 18.3334 15.8925 17.1125 17.1125C15.8934 18.3333 13.9284 18.3333 10 18.3333C6.07169 18.3333 4.10752 18.3333 2.88669 17.1125C1.66669 15.8933 1.66669 13.9283 1.66669 10C1.66669 6.07167 1.66669 4.1075 2.88669 2.88667C4.10835 1.66667 6.07169 1.66667 10 1.66667Z" stroke="#0D0F13" stroke-width="1.5"/>
<path d="M17.9167 14.1667H2.08337M17.9167 5.83333H2.08337M10 1.66667V5.83333M10 18.3333V14.1667M14.1667 2.08333V5.83333M14.1667 17.9167V14.1667M5.83337 2.08333V5.83333M5.83337 17.9167V14.1667M11.6667 10C11.6667 9.56 11.225 9.26333 10.3425 8.67C9.44837 8.06917 9.00087 7.76833 8.66754 7.98917C8.33337 8.21 8.33337 8.80583 8.33337 10C8.33337 11.1933 8.33337 11.79 8.66671 12.0108C9.00004 12.2317 9.44837 11.9308 10.3425 11.33C11.2259 10.7367 11.6667 10.44 11.6667 10Z" stroke="#0D0F13" stroke-width="1.5" stroke-linecap="round"/>
</svg>
