<svg width="22" height="19" viewBox="0 0 22 19" fill="none" xmlns="http://www.w3.org/2000/svg">
<path d="M16 7L16.658 6.671C18.604 5.698 19.578 5.211 20.288 5.651C21 6.091 21 7.179 21 9.354V9.646C21 11.822 21 12.909 20.289 13.349C19.577 13.789 18.604 13.302 16.659 12.329L16 12V7ZM1 9C1 5.713 1 4.069 1.908 2.962C2.07409 2.75965 2.25965 2.57409 2.462 2.408C3.57 1.5 5.212 1.5 8.5 1.5C11.787 1.5 13.431 1.5 14.538 2.408C14.7404 2.57409 14.9259 2.75965 15.092 2.962C16 4.07 16 5.712 16 9V10C16 13.287 16 14.931 15.092 16.038C14.9259 16.2403 14.7403 16.4259 14.538 16.592C13.43 17.5 11.788 17.5 8.5 17.5C5.213 17.5 3.569 17.5 2.462 16.592C2.25965 16.4259 2.07409 16.2404 1.908 16.038C1 14.93 1 13.288 1 10V9Z" stroke="#0D0F13" stroke-width="1.5"/>
<path d="M6 9.5H8.5M8.5 9.5H11M8.5 9.5V12M8.5 9.5V7" stroke="#0D0F13" stroke-width="1.5" stroke-linecap="round"/>
</svg>
